<?xml version="1.0" encoding="UTF-8"?>
<svg id="Layer_2" data-name="Layer 2" xmlns="http://www.w3.org/2000/svg" viewBox="0 0 591.47 273.47">
  <defs>
    <style>
      .cls-1 {
        fill: #fff;
      }
    </style>
  </defs>
  <g id="Layer_1-2" data-name="Layer 1">
    <path class="cls-1" d="M454.74,0c-29.65,0-57.1,9.44-79.5,25.48C352.83,9.44,325.39,0,295.74,0s-57.1,9.44-79.5,25.48C193.83,9.44,166.39,0,136.74,0,61.22,0,0,61.22,0,136.74s61.22,136.74,136.74,136.74c29.65,0,57.1-9.44,79.5-25.48,22.4,16.04,49.85,25.48,79.5,25.48s57.1-9.44,79.5-25.48c22.4,16.04,49.85,25.48,79.5,25.48,75.52,0,136.74-61.22,136.74-136.74S530.25,0,454.74,0Z"/>
  </g>
</svg>