<?xml version="1.0" encoding="UTF-8"?>
<svg id="Layer_2" data-name="Layer 2" xmlns="http://www.w3.org/2000/svg" viewBox="0 0 209 209">
  <defs>
    <style>
      .cls-1 {
        stroke-miterlimit: 10;
      }

      .cls-1, .cls-2 {
        fill: #fff;
        stroke: #faf9f1;
      }

      .cls-2 {
        stroke-linecap: round;
        stroke-linejoin: round;
        stroke-width: 12px;
      }

      .cls-3 {
        fill: #faf9f1;
      }
    </style>
  </defs>
  <g id="Layer_1-2" data-name="Layer 1">
    <path d="M209,209H51.46c-28.42,0-51.46-23.04-51.46-51.46V0s0,0,0,0h157.54c28.42,0,51.46,23.04,51.46,51.46v157.54s0,0,0,0Z"/>
    <circle class="cls-1" cx="161.14" cy="180.14" r="7.36"/>
    <line class="cls-2" x1="104.63" y1="43.68" x2="104.63" y2="28"/>
    <line class="cls-2" x1="104.63" y1="180" x2="104.63" y2="140.9"/>
    <path class="cls-3" d="M124.81,68.23c-4.11-10.43-15.15-16.23-26.12-14.16-7.45,1.12-15.37,6.44-16.79,14.09-.85,4.64,1.12,9.86,4.78,12.88,7.43,5.86,16.91,8.14,26.02,10.54,7.89,2.05,16.16,4.07,23.33,8.57,9.66,5.94,15.93,16.85,16.01,28.22,0,30.19-34.6,44.01-60.46,37.61-12.96-3.09-26.36-10.91-31.21-24.06-2.46-6.9-.8-14.37.36-20.94.02-.22,0-.35.04-.13.04.3.16.56.34.87.56,1.07,2.21,1.97,3.42,1.62.19-.05.09-.03-.05.04,0,0-.28.17-.28.17-.1.06-.23.17-.35.25-4.86,3.93-8.87,9.43-12.81,14.4-3.67,4.51-10.47-.57-7.09-5.38,3.19-4.23,6.43-8.47,10.1-12.39,2.63-2.62,5.87-6.27,10.16-6.22,3.99.1,6.16,3.86,5.74,7.41-.91,7.24-3.3,14.53,1.21,20.77,14.97,21.58,59.03,19.96,68.7-5.61,3.97-10.78-1.32-23.28-11.67-28.16-12.45-6.04-28.86-6.74-41.57-13.6-11.3-5.27-18.68-16-16.75-28.8,1.75-11,10.66-19.42,20.71-22.99,18.51-6.64,39.26,1.94,46.57,20.58,2.82,8.42-9.2,12.67-12.34,4.41h0Z"/>
  </g>
</svg>