<?xml version="1.0" encoding="UTF-8"?>
<svg id="Layer_2" data-name="Layer 2" xmlns="http://www.w3.org/2000/svg" viewBox="0 0 273.47 273.47">
  <defs>
    <style>
      .cls-1 {
        fill: #ffe697;
      }

      .cls-2 {
        stroke: #fff;
        stroke-linecap: round;
        stroke-linejoin: round;
        stroke-width: 8px;
      }

      .cls-2, .cls-3 {
        fill: #fff;
      }

      .cls-4 {
        fill: #ffd500;
      }

      .cls-5 {
        fill: #ffc700;
      }
    </style>
  </defs>
  <g id="Layer_1-2" data-name="Layer 1">
    <circle class="cls-4" cx="136.74" cy="136.74" r="136.74"/>
    <path class="cls-5" d="M207.27,205.87c33.23-33.99,38.6-85.1,16.84-126-4.08-6.24-8.89-12.13-14.44-17.56-41.21-40.28-107.27-39.53-147.55,1.68-40.28,41.21-39.53,107.27,1.68,147.55,5.55,5.42,11.55,10.1,17.88,14.04,41.38,20.82,92.36,14.29,125.59-19.7Z"/>
    <path class="cls-1" d="M207.27,205.87c-33.23,33.99-84.2,40.52-125.59,19.7,40.66,25.3,94.81,19.94,129.67-15.72,34.86-35.66,38.98-89.92,12.76-129.99,21.76,40.9,16.39,92.01-16.84,126Z"/>
    <line class="cls-2" x1="136.63" y1="76.68" x2="136.63" y2="61"/>
    <line class="cls-2" x1="136.63" y1="213" x2="136.63" y2="173.9"/>
    <path class="cls-3" d="M154.65,102c-2.44-6.22-7.85-11.1-14.38-12.67-8.92-2.22-20.64,1.38-24.21,10.44-1.89,5.25.49,11.23,5.17,14.27,9.67,6.63,21.99,8.36,33.69,12.06,6.89,2.14,13.9,5.27,19.36,10.52,8.5,8.03,12.48,20.73,9.88,32.19-5.79,26.39-37.72,36.62-61.52,30.27-22.63-5.7-39.07-24.95-30.18-48.72,2.31-5.34,10.11-2.36,8.33,3.12-1.84,5.11-2.07,10.87-.48,15.86,2.5,7.97,9.16,13.56,16.76,16.81,12.9,5.66,28.73,5.06,41.03-1.87,14.49-7.65,19.68-26.17,7.02-38.01-8.49-7.32-21.46-8.21-32.68-11.54-15.11-4.08-31.21-11.79-32.51-29.89-1.13-13.24,8.69-25.13,20.42-29.84,19.97-8.17,42.88.75,50.96,21.02,3.7,11.36-12.36,17.07-16.67,5.96h0Z"/>
  </g>
</svg>